 <svg  version="1.0" xmlns="http://www.w3.org/2000/svg"  width="1350.000000pt" height="660.000000pt" viewBox="0 0 1350.000000 660.000000"  preserveAspectRatio="xMidYMid meet">  <g transform="translate(0.000000,660.000000) scale(0.100000,-0.100000)" fill="#34743f" stroke="none"> <path d="M6381 6043 c-14 -3 -63 -30 -110 -61 -48 -31 -106 -67 -131 -80 -25 -14 -59 -35 -77 -48 -17 -13 -34 -24 -38 -24 -3 0 -24 -12 -48 -27 -23 -15 -58 -36 -77 -46 -19 -11 -64 -39 -100 -62 -68 -45 -147 -94 -395 -246 -238 -144 -271 -179 -263 -270 3 -26 12 -59 20 -72 9 -13 76 -59 148 -103 73 -43 154 -92 181 -109 27 -16 135 -83 241 -148 106 -66 249 -154 318 -197 379 -238 390 -244 440 -236 22 3 46 17 64 38 l29 32 -7 735 c-3 405 -11 768 -16 806 -13 89 -35 114 -105 119 -28 3 -61 2 -74 -1z m-529 -704 c48 -13 88 -68 88 -121 0 -45 -46 -103 -90 -113 -44 -10 -105 11 -134 46 -21 24 -26 41 -26 83 0 71 33 104 115 115 6 0 27 -4 47 -10z"/> <path d="M7075 6032 c-16 -10 -35 -25 -41 -33 -21 -27 -42 -144 -44 -244 -1 -55 -5 -226 -9 -380 -3 -154 -6 -447 -6 -651 0 -358 1 -373 20 -394 26 -29 68 -50 100 -50 28 0 133 50 181 86 28 22 94 64 283 183 81 51 78 49 228 144 106 67 291 183 345 216 135 82 171 106 222 148 139 112 158 271 42 342 -40 25 -86 27 -127 5 -17 -8 -84 -50 -149 -92 -66 -42 -165 -107 -222 -143 -57 -36 -134 -85 -172 -109 -97 -62 -96 -66 -96 229 0 220 -12 440 -26 496 -7 29 -70 78 -169 130 -38 21 -77 43 -85 49 -8 7 -43 27 -78 45 -80 41 -154 50 -197 23z"/> <path d="M5120 4704 c-20 -8 -41 -23 -48 -34 -21 -34 -31 -156 -36 -447 -3 -153 -8 -350 -12 -438 -5 -134 -3 -166 10 -197 9 -21 20 -38 26 -38 5 0 26 -16 47 -35 21 -19 92 -67 158 -107 66 -39 122 -74 125 -78 3 -4 17 -13 32 -21 45 -24 151 -91 188 -119 19 -15 87 -58 150 -97 63 -38 143 -90 178 -114 35 -24 82 -55 105 -68 23 -13 60 -36 82 -50 22 -15 47 -30 55 -34 8 -4 29 -16 45 -27 17 -11 37 -23 45 -27 8 -3 31 -18 50 -33 37 -29 90 -50 123 -50 12 0 39 9 62 20 77 37 75 24 75 587 0 352 -3 507 -12 535 -13 45 -61 90 -134 128 -42 21 -146 80 -194 110 -8 5 -78 47 -155 93 -77 47 -196 121 -265 166 -69 44 -172 108 -230 143 -58 34 -149 91 -203 126 -100 65 -204 122 -222 121 -5 0 -26 -7 -45 -15z m632 -722 c24 -23 32 -41 36 -81 4 -45 2 -53 -25 -80 -32 -32 -87 -47 -130 -37 -14 4 -41 22 -60 41 -27 27 -33 41 -33 75 0 36 6 48 40 82 38 39 42 40 91 36 40 -4 58 -12 81 -36z"/> <path d="M8365 4698 c-16 -6 -61 -31 -100 -56 -38 -25 -99 -64 -135 -87 -121 -79 -507 -318 -834 -516 -121 -74 -234 -148 -251 -166 -66 -68 -68 -86 -73 -604 -4 -454 -3 -468 17 -513 15 -35 29 -50 55 -61 73 -31 112 -17 297 106 62 42 157 103 209 136 119 74 271 171 453 291 78 52 187 121 242 155 226 138 271 186 281 299 3 29 1 259 -4 512 l-10 458 -24 24 c-28 29 -80 38 -123 22z m-455 -764 c37 -23 60 -64 60 -111 -1 -43 -21 -73 -68 -97 -46 -24 -75 -20 -124 17 -36 28 -44 39 -46 72 -9 100 94 168 178 119z"/> <path d="M7028 1653 c-14 -9 -31 -27 -37 -40 -8 -16 -11 -210 -11 -598 l0 -575 29 -32 c25 -28 35 -32 78 -32 56 0 98 24 108 64 11 40 7 1144 -4 1173 -20 52 -109 73 -163 40z"/> <path d="M7885 1650 c-136 -41 -243 -107 -333 -205 -104 -114 -152 -244 -152 -415 0 -188 56 -326 185 -456 65 -66 96 -89 165 -121 129 -61 196 -76 325 -70 118 5 178 19 271 63 104 49 212 140 233 197 6 16 11 107 11 213 0 173 -1 185 -21 205 -20 20 -28 21 -284 17 -260 -3 -264 -3 -288 -26 -45 -42 -47 -141 -4 -164 13 -7 83 -11 183 -12 144 -1 164 -3 183 -20 59 -53 -11 -166 -139 -224 -73 -34 -199 -42 -282 -17 -68 19 -166 82 -207 132 -84 102 -126 250 -102 360 54 244 305 404 532 337 66 -20 97 -36 173 -93 76 -57 121 -60 172 -10 40 39 44 75 13 125 -39 64 -180 151 -301 185 -90 25 -249 25 -333 -1z"/> <path d="M8878 1650 c-29 -16 -39 -28 -45 -58 -4 -20 -8 -290 -8 -599 l0 -561 24 -25 c49 -53 153 -40 186 22 14 27 15 96 13 607 l-3 576 -33 29 c-39 35 -80 37 -134 9z"/> <path d="M10844 1660 c-33 -13 -67 -64 -123 -183 -28 -59 -51 -110 -51 -112 0 -1 -27 -60 -60 -129 -33 -70 -60 -128 -60 -131 0 -2 -18 -43 -41 -92 -22 -48 -51 -110 -64 -138 -25 -54 -75 -161 -129 -278 -60 -129 -63 -167 -14 -201 12 -9 42 -16 68 -16 61 0 90 29 146 143 68 141 25 127 404 127 366 0 342 5 376 -75 42 -103 76 -165 96 -179 12 -9 41 -16 65 -16 34 0 48 6 77 34 20 18 36 40 36 48 0 26 -39 122 -94 236 -31 62 -56 114 -56 116 0 2 -31 69 -69 148 -37 78 -79 168 -93 198 -14 30 -40 87 -58 125 -76 165 -144 302 -162 325 -34 43 -69 60 -123 59 -27 0 -60 -4 -71 -9z m121 -382 c43 -105 88 -204 147 -326 22 -46 37 -89 34 -97 -8 -22 -454 -22 -462 -1 -3 8 10 47 29 87 19 41 65 146 102 234 63 148 88 195 104 195 4 0 24 -42 46 -92z"/> <path d="M1261 1648 c-81 -14 -76 32 -79 -624 l-3 -585 30 -29 c47 -48 133 -36 171 24 14 21 18 174 19 814 l1 212 188 0 c183 -1 188 -1 242 -28 123 -61 158 -229 68 -321 -55 -56 -104 -71 -231 -71 -62 0 -117 -4 -123 -8 -35 -23 -46 -109 -17 -138 10 -9 31 -23 48 -30 37 -16 162 -145 311 -324 16 -19 56 -63 90 -97 52 -55 66 -63 97 -63 48 0 107 50 107 90 0 29 -65 124 -140 207 -79 85 -150 175 -150 188 0 7 21 24 48 36 75 36 140 104 178 185 29 61 34 83 34 146 0 171 -77 300 -224 375 -59 29 -81 35 -155 39 -179 9 -468 10 -510 2z"/> <path d="M2547 1636 c-35 -33 -37 -65 -34 -674 l2 -524 33 -29 c23 -21 43 -29 68 -29 43 0 91 26 101 55 3 11 6 281 6 599 l1 579 -30 23 c-41 33 -111 33 -147 0z"/> <path d="M4569 1637 c-41 -27 -80 -96 -155 -269 -31 -73 -72 -166 -90 -206 -19 -41 -34 -76 -34 -79 0 -2 -15 -37 -34 -76 -72 -154 -101 -217 -163 -357 -90 -204 -88 -196 -69 -226 29 -44 110 -59 154 -28 25 17 40 44 95 164 21 46 43 88 50 92 15 10 648 10 664 0 6 -4 21 -32 33 -62 34 -86 80 -173 102 -192 32 -28 100 -24 137 8 36 30 37 42 12 109 -17 47 -33 81 -124 275 -40 86 -132 288 -219 480 -132 293 -155 336 -190 363 -46 36 -120 37 -169 4z m121 -317 c12 -30 42 -100 67 -155 25 -55 52 -116 60 -135 8 -19 29 -63 45 -98 16 -35 27 -70 24 -78 -4 -12 -45 -14 -241 -14 -229 0 -235 1 -235 20 0 11 5 28 10 38 12 20 166 371 184 419 15 39 47 77 56 66 4 -5 17 -33 30 -63z"/> <path d="M5655 1649 c-49 -24 -49 -23 -53 -547 -2 -271 -1 -531 3 -578 6 -74 11 -90 35 -117 24 -27 34 -31 78 -31 56 0 87 19 104 64 5 14 9 230 8 511 0 424 2 488 15 499 20 16 308 5 376 -15 223 -64 355 -246 336 -461 -14 -148 -95 -262 -236 -332 -74 -36 -77 -37 -187 -36 -138 2 -149 -5 -149 -96 0 -91 43 -120 178 -120 223 0 453 137 555 330 52 98 77 288 53 412 -22 122 -97 264 -178 339 -95 89 -234 159 -354 178 -83 14 -557 13 -584 0z"/> <path d="M9315 1648 c-56 -31 -73 -110 -34 -158 21 -25 24 -25 199 -30 98 -3 182 -9 187 -13 4 -5 10 -237 13 -517 l5 -508 25 -21 c37 -30 115 -28 155 4 l30 25 3 507 c2 386 5 509 15 515 6 4 96 8 199 8 102 0 194 3 203 6 22 9 45 57 45 96 0 36 -22 69 -57 87 -30 15 -960 15 -988 -1z"/> <path d="M11807 1649 c-46 -27 -47 -45 -47 -636 0 -535 1 -559 20 -583 l19 -25 375 0 c368 0 376 0 396 21 23 23 36 88 26 128 -13 51 -41 56 -328 56 -145 0 -269 4 -277 9 -12 8 -15 88 -18 483 -2 264 -8 487 -14 504 -5 18 -21 36 -35 43 -31 14 -93 14 -117 0z"/> <path d="M3072 1629 l-22 -20 2 -590 3 -591 28 -24 c41 -35 97 -33 139 5 l33 29 5 254 5 253 288 5 288 5 19 25 c31 40 26 93 -11 124 l-31 26 -274 0 -274 0 -11 28 c-14 36 -2 294 14 304 7 4 157 8 335 8 l323 0 24 25 c36 35 34 88 -4 126 l-29 29 -414 0 c-404 0 -415 0 -436 -21z"/> <path d="M6153 1043 c-12 -2 -33 -19 -47 -37 -38 -51 -80 -142 -73 -160 9 -24 72 -48 103 -40 56 14 142 140 130 189 -9 35 -62 57 -113 48z"/> </g> </svg> 